nColumns=19
nRows=65
DataType=double
version=3
OpenSimVersion=4.1
endheader
time	ground_force_1_vx	ground_force_1_vy	ground_force_1_vz	ground_force_1_px	ground_force_1_py	ground_force_1_pz	ground_force_1_mx	ground_force_1_my	ground_force_1_mz	ground_force_2_vx	ground_force_2_vy	ground_force_2_vz	ground_force_2_px	ground_force_2_py	ground_force_2_pz	ground_force_2_mx	ground_force_2_my	ground_force_2_mz
0	7.10868	308.466	-5.72414	0.0999038	0.006	-0.0963117	0	0.631246	0	0	0	0	0.768785	0	-0.210545	0	0	0
0.01	-7.00556	345.941	-5.68692	0.102848	0.006	-0.0962457	0	0.737729	0	0	0	0	0.768785	0	-0.210545	0	0	0
0.02	-21.5707	386.894	-6.1283	0.106132	0.006	-0.0960167	0	0.853815	0	0	0	0	0.768785	0	-0.210545	0	0	0
0.03	-35.9519	430.198	-7.18781	0.109197	0.006	-0.0956297	0	0.973997	0	0	0	0	0.768785	0	-0.210545	0	0	0
0.04	-49.5723	474.546	-8.96627	0.112044	0.006	-0.0950997	0	1.09092	0	0	0	0	0.768785	0	-0.210545	0	0	0
0.05	-61.9363	518.608	-11.497	0.114685	0.006	-0.0944497	0	1.19711	0	0	0	0	0.768785	0	-0.210545	0	0	0
0.06	-72.6348	561.174	-14.7302	0.117139	0.006	-0.0937007	0	1.28727	0	0	0	0	0.768785	0	-0.210545	0	0	0
0.07	-81.3745	601.208	-18.5348	0.119427	0.006	-0.0928767	0	1.35954	0	0	0	0	0.768785	0	-0.210545	0	0	0
0.08	-87.9807	637.862	-22.7151	0.121566	0.006	-0.0920007	0	1.41532	0	0	0	0	0.768785	0	-0.210545	0	0	0
0.09	-92.3783	670.455	-27.0377	0.123574	0.006	-0.0910937	0	1.45809	0	0	0	0	0.768785	0	-0.210545	0	0	0
0.1	-94.5853	698.451	-31.2663	0.125466	0.006	-0.0901717	0	1.4924	0	0	0	0	0.768785	0	-0.210545	0	0	0
0.11	-94.7176	721.477	-35.1995	0.127267	0.006	-0.0892477	0	1.52279	0	0	0	0	0.768785	0	-0.210545	0	0	0
0.12	-92.9821	739.342	-38.6986	0.129004	0.006	-0.0883237	0	1.55288	0	0	0	0	0.768785	0	-0.210545	0	0	0
0.13	-89.655	752.051	-41.6962	0.130718	0.006	-0.0873987	0	1.58475	0	0	0	0	0.768785	0	-0.210545	0	0	0
0.14	-85.0557	759.799	-44.1818	0.132451	0.006	-0.0864677	0	1.61951	0	0	0	0	0.768785	0	-0.210545	0	0	0
0.15	-79.5193	762.962	-46.1779	0.134247	0.006	-0.0855247	0	1.65822	0	0	0	0	0.768785	0	-0.210545	0	0	0
0.16	-73.367	762.085	-47.7187	0.136146	0.006	-0.0845667	0	1.70217	0	0	0	0	0.768785	0	-0.210545	0	0	0
0.17	-66.8823	757.864	-48.8363	0.138181	0.006	-0.0835947	0	1.7523	0	0	0	0	0.768785	0	-0.210545	0	0	0
0.18	-60.2914	751.095	-49.5527	0.14037	0.006	-0.0826167	0	1.80863	0	0	0	0	0.768785	0	-0.210545	0	0	0
0.19	-53.7584	742.624	-49.8793	0.142718	0.006	-0.0816447	0	1.87004	0	0	0	0	0.768785	0	-0.210545	0	0	0
0.2	-47.3882	733.29	-49.8245	0.145214	0.006	-0.0806967	0	1.93399	0	0	0	0	0.768785	0	-0.210545	0	0	0
0.21	-41.2363	723.858	-49.4059	0.147839	0.006	-0.0797917	0	1.99634	0	0	0	0	0.768785	0	-0.210545	0	0	0
0.22	-35.3256	714.963	-48.661	0.150568	0.006	-0.0789447	0	2.05145	0	0	0	0	0.768785	0	-0.210545	0	0	0
0.23	-29.6611	707.071	-47.6493	0.153377	0.006	-0.0781687	0	2.09268	0	0	0	0	0.768785	0	-0.210545	0	0	0
0.24	-24.2396	700.476	-46.4499	0.156244	0.006	-0.0774727	0	2.11302	0	0	0	0	0.768785	0	-0.210545	0	0	0
0.25	-19.0567	695.304	-45.1538	0.159157	0.006	-0.0768577	0	2.10584	0	0	0	0	0.768785	0	-0.210545	0	0	0
0.26	-14.1102	691.549	-43.8526	0.162112	0.006	-0.0763207	0	2.06591	0	0	0	0	0.768785	0	-0.210545	0	0	0
0.27	-9.40105	689.107	-42.6275	0.165117	0.006	-0.0758577	0	1.99012	0	0	0	0	0.768785	0	-0.210545	0	0	0
0.28	-4.93436	687.818	-41.541	0.168189	0.006	-0.0754627	0	1.87733	0	0	0	0	0.768785	0	-0.210545	0	0	0
0.29	-0.717108	687.5	-40.6321	0.171349	0.006	-0.0751317	0	1.72791	0	0	0	0	0.768785	0	-0.210545	0	0	0
0.3	3.24379	687.97	-39.9153	0.174626	0.006	-0.0748627	0	1.54318	0	0	0	0	0.768785	0	-0.210545	0	0	0
0.31	6.94343	689.063	-39.3829	0.178047	0.006	-0.0746567	0	1.32495	0	0	0	0	0.768785	0	-0.210545	0	0	0
0.32	10.3811	690.645	-39.0084	0.18164	0.006	-0.0745197	0	1.07538	0	0	0	0	0.768785	0	-0.210545	0	0	0
0.33	13.5637	692.618	-38.7543	0.185428	0.006	-0.0744617	0	0.797026	0	0	0	0	0.768785	0	-0.210545	0	0	0
0.34	16.5091	694.934	-38.5798	0.189426	0.006	-0.0744927	0	0.492822	0	0	0	0	0.768785	0	-0.210545	0	0	0
0.35	19.2488	697.587	-38.4481	0.193644	0.006	-0.0746217	0	0.166457	0	0	0	0	0.768785	0	-0.210545	0	0	0
0.36	21.8294	700.608	-38.3325	0.198079	0.006	-0.0748587	0	-0.17747	0	0	0	0	0.768785	0	-0.210545	0	0	0
0.37	24.309	704.058	-38.2206	0.202722	0.006	-0.0752047	0	-0.533344	0	0	0	0	0.768785	0	-0.210545	0	0	0
0.38	26.751	708.014	-38.1143	0.207559	0.006	-0.0756577	0	-0.894382	0	0	0	0	0.768785	0	-0.210545	0	0	0
0.39	29.2159	712.569	-38.0286	0.212575	0.006	-0.0762117	0	-1.25278	0	0	0	0	0.768785	0	-0.210545	0	0	0
0.4	31.7552	717.825	-37.9891	0.217753	0.006	-0.0768507	0	-1.59998	0	0	0	0	0.768785	0	-0.210545	0	0	0
0.41	34.4109	723.882	-38.0301	0.223078	0.006	-0.0775597	0	-1.92718	0	0	0	0	0.768785	0	-0.210545	0	0	0
0.42	37.2124	730.844	-38.1877	0.228531	0.006	-0.0783197	0	-2.22594	0	0	0	0	0.768785	0	-0.210545	0	0	0
0.43	40.1772	738.82	-38.4874	0.234091	0.006	-0.0791167	0	-2.48872	0	0	0	0	0.768785	0	-0.210545	0	0	0
0.44	43.3195	747.922	-38.9357	0.239733	0.006	-0.0799337	0	-2.70945	0	0	0	0	0.768785	0	-0.210545	0	0	0
0.45	46.6542	758.232	-39.5186	0.245421	0.006	-0.0807617	0	-2.88427	0	0	0	0	0.768785	0	-0.210545	0	0	0
0.46	50.198	769.775	-40.204	0.251116	0.006	-0.0815887	0	-3.01189	0	0	0	0	0.768785	0	-0.210545	0	0	0
0.47	53.9697	782.483	-40.9461	0.256771	0.006	-0.0824087	0	-3.0934	0	0	0	0	0.768785	0	-0.210545	0	0	0
0.48	57.9874	796.168	-41.6903	0.262342	0.006	-0.0832167	0	-3.13176	0	0	0	0	0.768785	0	-0.210545	0	0	0
0.49	62.264	810.504	-42.3801	0.267783	0.006	-0.0840077	0	-3.13155	0	0	0	0	0.768785	0	-0.210545	0	0	0
0.5	66.8039	825.014	-42.962	0.273055	0.006	-0.0847817	0	-3.09852	0	0	0	0	0.768785	0	-0.210545	0	0	0
0.51	71.598	839.071	-43.387	0.278125	0.006	-0.0855367	0	-3.03929	0	0	0	0	0.768785	0	-0.210545	0	0	0
0.52	76.6154	851.917	-43.6103	0.282969	0.006	-0.0862757	0	-2.96108	0	0	0	0	0.768785	0	-0.210545	0	0	0
0.53	81.7939	862.687	-43.5913	0.287574	0.006	-0.0870007	0	-2.87144	0	0	0	0	0.768785	0	-0.210545	0	0	0
0.54	87.0341	870.449	-43.2933	0.291939	0.006	-0.0877157	0	-2.77802	0	0	0	0	0.768785	0	-0.210545	0	0	0
0.55	92.2007	874.248	-42.6811	0.296074	0.006	-0.0884257	0	-2.68847	0	-2.54205	36.0381	-6.57181	0.798591	0.006	-0.226802	0	0.451032	0
0.56	97.1238	873.161	-41.7213	0.299993	0.006	-0.0891337	0	-2.61005	0	-5.53744	60.8474	-7.34445	0.820994	0.006	-0.238417	0	0.552762	0
0.57	101.604	866.345	-40.3875	0.303718	0.006	-0.0898467	0	-2.54873	0	-9.5223	91.4939	-8.03645	0.833118	0.006	-0.244195	0	0.614056	0
0.58	105.42	853.091	-38.6671	0.307276	0.006	-0.0905667	0	-2.5078	0	-14.6182	128.157	-8.56125	0.841009	0.006	-0.247584	0	0.660056	0
0.59	108.345	832.878	-36.5702	0.310693	0.006	-0.0912977	0	-2.4865	0	-20.9229	170.648	-8.81019	0.846808	0.006	-0.249788	0	0.698892	0
0.6	110.164	805.421	-34.1377	0.314001	0.006	-0.0920377	0	-2.47915	0	-28.518	218.325	-8.66271	0.851478	0.006	-0.251334	0	0.733113	0
0.61	110.69	770.721	-31.4417	0.317229	0.006	-0.0927837	0	-2.47592	0	-37.3775	270.083	-7.99343	0.855517	0.006	-0.252492	0	0.763294	0
0.62	109.765	729.092	-28.5766	0.320409	0.006	-0.0935297	0	-2.46501	0	-47.2263	324.472	-6.68265	0.859202	0.006	-0.253413	0	0.789616	0
0.63	107.284	681.175	-25.6468	0.32357	0.006	-0.0942687	0	-2.43529	0	-57.5744	379.873	-4.64695	0.86269	0.006	-0.254182	0	0.812355	0
0.64	103.207	627.916	-22.7537	0.326741	0.006	-0.0949927	0	-2.37855	0	-67.8946	434.662	-1.86992	0.866071	0.006	-0.254846	0	0.83181	0
